<svg width="24" height="24" viewBox="0 0 24 24" fill="none" xmlns="http://www.w3.org/2000/svg">
<g clip-path="url(#clip0_176_82)">
<path d="M18.99 0H4.99002C2.22902 0 -0.00997925 2.239 -0.00997925 5V19C-0.00997925 21.761 2.22902 24 4.99002 24H18.99C21.752 24 23.99 21.761 23.99 19V5C23.99 2.239 21.752 0 18.99 0ZM7.99002 19H4.99002V8H7.99002V19ZM6.49002 6.732C5.52402 6.732 4.74002 5.942 4.74002 4.968C4.74002 3.994 5.52402 3.204 6.49002 3.204C7.45602 3.204 8.24002 3.994 8.24002 4.968C8.24002 5.942 7.45702 6.732 6.49002 6.732ZM19.99 19H16.99V13.396C16.99 10.028 12.99 10.283 12.99 13.396V19H9.99002V8H12.99V9.765C14.386 7.179 19.99 6.988 19.99 12.241V19Z" fill="#1E1E1E"/>
</g>
<defs>
<clipPath id="clip0_176_82">
<rect width="24" height="24" fill="white" transform="translate(-0.00997925)"/>
</clipPath>
</defs>
</svg>
