<svg width="49" height="39" viewBox="0 0 49 39" fill="none" xmlns="http://www.w3.org/2000/svg">
<path fill-rule="evenodd" clip-rule="evenodd" d="M24.9173 34.0891C24.8968 34.0931 24.8768 34.0992 24.8574 34.1071C24.8783 34.1047 24.8986 34.0986 24.9173 34.0891ZM24.7256 34.137C24.6837 34.1429 24.6298 34.1549 24.5939 34.1609C24.6298 34.1549 24.6777 34.1429 24.7256 34.137ZM24.4861 34.1669C24.4503 34.1717 24.4143 34.1737 24.3782 34.1729C24.4141 34.1797 24.4512 34.1776 24.4861 34.1669Z" fill="#F37320"/>
<path fill-rule="evenodd" clip-rule="evenodd" d="M24.5819 34.155C24.546 34.155 24.51 34.161 24.4861 34.161C24.5181 34.1616 24.5502 34.1596 24.5819 34.155ZM23.7074 34.1251C23.6509 34.116 23.595 34.104 23.5397 34.0892C23.5936 34.0952 23.6475 34.1131 23.7074 34.1251ZM24.1746 34.1789C24.0254 34.1758 23.877 34.1577 23.7314 34.1251C23.8764 34.161 24.0252 34.1791 24.1746 34.1789ZM24.3723 34.173C24.3303 34.173 24.2764 34.1789 24.2225 34.1789C24.2725 34.1802 24.3225 34.1782 24.3723 34.173ZM33.9257 9.31943H33.9197C33.8357 9.28766 33.746 9.27341 33.6562 9.27756C33.775 9.28752 33.8919 9.31368 34.0036 9.35532C33.9766 9.34585 33.9505 9.33383 33.9257 9.31943Z" fill="#F15E22"/>
<path fill-rule="evenodd" clip-rule="evenodd" d="M33.3268 9.31936H33.3208C33.2929 9.33592 33.2626 9.34803 33.2309 9.35525C33.3696 9.30717 33.5154 9.2829 33.6622 9.28347C33.5491 9.26697 33.4337 9.27932 33.3268 9.31936Z" fill="#F13AB1"/>
<path fill-rule="evenodd" clip-rule="evenodd" d="M36.7468 10.2824C36.6606 10.2511 36.569 10.2369 36.4773 10.2406C36.5969 10.2447 36.7147 10.2711 36.8247 10.3183C36.8001 10.3037 36.774 10.2917 36.7468 10.2824Z" fill="#F15E22"/>
<path fill-rule="evenodd" clip-rule="evenodd" d="M36.1419 10.2765C36.1129 10.2964 36.0804 10.3106 36.0461 10.3183C36.1816 10.2657 36.3259 10.2394 36.4713 10.2406C36.3602 10.2281 36.2477 10.2404 36.1419 10.2765Z" fill="#F13AB1"/>
<path fill-rule="evenodd" clip-rule="evenodd" d="M36.8666 10.3422C36.78 10.3127 36.6884 10.3005 36.5971 10.3063C36.7163 10.3088 36.8341 10.3331 36.9445 10.3781C36.9146 10.3661 36.8966 10.3542 36.8666 10.3422Z" fill="#F15E22"/>
<path fill-rule="evenodd" clip-rule="evenodd" d="M36.2677 10.3363C36.2377 10.3542 36.2078 10.3602 36.1718 10.3781C36.3072 10.325 36.4516 10.2986 36.5971 10.3004C36.486 10.2931 36.3745 10.3053 36.2677 10.3363Z" fill="#F13AB1"/>
<path fill-rule="evenodd" clip-rule="evenodd" d="M14.3037 4.32471H14.3096C14.3336 4.31873 14.3695 4.30676 14.3995 4.30078C12.0216 4.65968 6.75073 13.1296 3.91763 20.8997C0.904848 29.1723 1.62959 33.162 3.9955 34.0293H4.00149C6.36739 34.8847 9.48799 32.2946 12.5068 24.0161C13.3214 21.785 14.0162 19.3684 14.5672 17.0236C13.0997 10.719 12.7763 4.89894 14.3037 4.32471Z" fill="#F13AB1"/>
<path fill-rule="evenodd" clip-rule="evenodd" d="M23.354 34.0294C20.9761 33.1561 20.2634 29.1603 23.2761 20.8998C23.5756 20.0803 23.8931 19.2488 24.2465 18.4294C21.1498 11.0421 16.3761 3.88212 14.3995 4.29485C14.5422 4.27537 14.6874 4.28763 14.8248 4.33074H14.8308V4.33673C16.3617 4.90498 16.0347 10.7191 14.5648 17.0297C15.1057 19.399 15.7938 21.7323 16.6253 24.0162C19.0031 30.5361 21.4469 33.5209 23.5313 34.0772C23.4704 34.0654 23.4103 34.0494 23.3516 34.0294" fill="#FD913C"/>
<path fill-rule="evenodd" clip-rule="evenodd" d="M14.8248 4.33659H14.8188C14.6874 4.29431 14.5482 4.28205 14.4115 4.3007C14.3696 4.30669 14.3516 4.31865 14.3157 4.32463H14.3097C12.7823 4.89886 13.1058 10.719 14.5672 17.0236C16.0227 10.719 16.3521 4.91083 14.8248 4.33659Z" fill="#F05524"/>
<path fill-rule="evenodd" clip-rule="evenodd" d="M33.4885 4.36646C31.2723 5.16799 27.0795 11.7119 24.2524 18.4232C24.5998 19.2427 24.9233 20.0741 25.2228 20.8936C28.2355 29.1602 27.5168 33.1559 25.1449 34.0172V34.0232C25.073 34.0411 24.9952 34.0651 24.9353 34.083C27.0256 33.5447 29.4934 30.5658 31.8653 24.01C32.6768 21.7869 33.3489 19.5155 33.8778 17.2089C32.4103 10.9582 32.039 5.12612 33.4885 4.36646Z" fill="#FD913C"/>
<path fill-rule="evenodd" clip-rule="evenodd" d="M25.1329 34.0233H25.1389C27.5048 33.162 28.2236 29.1543 25.2168 20.8937C24.9053 20.0743 24.5879 19.2428 24.2345 18.4233C23.8871 19.2428 23.5636 20.0743 23.2642 20.8937C20.2514 29.1603 20.9761 33.162 23.342 34.0233C23.4019 34.0473 23.4678 34.0592 23.5277 34.0772C23.5821 34.0967 23.6382 34.1108 23.6954 34.119H23.7194C23.8669 34.1529 24.0173 34.1729 24.1686 34.1789H24.3603C24.3967 34.1763 24.4328 34.1703 24.4681 34.1609C24.51 34.1609 24.54 34.1549 24.5819 34.1549C24.6238 34.1549 24.6597 34.137 24.7077 34.131C24.7564 34.1294 24.8048 34.1213 24.8514 34.1071C24.8754 34.1071 24.8933 34.1011 24.9113 34.1011C24.9892 34.0712 25.0611 34.0532 25.1329 34.0233Z" fill="#F05524"/>
<path fill-rule="evenodd" clip-rule="evenodd" d="M34.2432 4.3606C35.7106 5.09035 35.3452 10.9284 33.8718 17.221C34.4025 19.5225 35.0726 21.7897 35.8783 24.0101C38.8971 32.2827 42.0177 34.8787 44.3956 34.0233H44.4016C46.7615 33.15 47.4862 29.1663 44.4734 20.8937C41.7362 13.3868 36.7265 5.23391 34.2432 4.3606Z" fill="#F13AB1"/>
<path fill-rule="evenodd" clip-rule="evenodd" d="M34.2432 4.36048C34.1312 4.31979 34.0144 4.29365 33.8958 4.28271C33.7501 4.28957 33.6065 4.31987 33.4705 4.37244C32.033 5.1321 32.3924 10.9522 33.8658 17.2209C35.3512 10.9342 35.7106 5.09621 34.2432 4.36048Z" fill="#F05524"/>
</svg>
