<svg width="50" height="40" viewBox="0 0 50 40" fill="none" xmlns="http://www.w3.org/2000/svg">
<path fill-rule="evenodd" clip-rule="evenodd" d="M25.4073 34.5891C25.3868 34.5931 25.3667 34.5992 25.3474 34.6071C25.3683 34.6047 25.3886 34.5986 25.4073 34.5891ZM25.2156 34.637C25.1737 34.6429 25.1198 34.6549 25.0839 34.6609C25.1198 34.6549 25.1677 34.6429 25.2156 34.637ZM24.976 34.6669C24.9403 34.6717 24.9043 34.6737 24.8682 34.6729C24.9041 34.6797 24.9411 34.6776 24.976 34.6669Z" fill="#F37320"/>
<path fill-rule="evenodd" clip-rule="evenodd" d="M25.0719 34.6549C25.0359 34.6549 25 34.6609 24.976 34.6609C25.0081 34.6615 25.0401 34.6595 25.0719 34.6549ZM24.1974 34.625C24.1409 34.6159 24.0849 34.6039 24.0297 34.5891C24.0836 34.5951 24.1375 34.613 24.1974 34.625ZM24.6646 34.6788C24.5154 34.6757 24.3669 34.6576 24.2213 34.625C24.3663 34.6609 24.5152 34.679 24.6646 34.6788ZM24.8622 34.6728C24.8203 34.6728 24.7664 34.6788 24.7125 34.6788C24.7625 34.6801 24.8125 34.6781 24.8622 34.6728ZM34.4157 9.81931H34.4097C34.3256 9.78754 34.2359 9.77329 34.1462 9.77743C34.265 9.78739 34.3819 9.81356 34.4936 9.85519C34.4665 9.84572 34.4404 9.83371 34.4157 9.81931Z" fill="#F15E22"/>
<path fill-rule="evenodd" clip-rule="evenodd" d="M33.8167 9.81936H33.8107C33.7828 9.83592 33.7525 9.84803 33.7209 9.85525C33.8595 9.80717 34.0054 9.7829 34.1521 9.78347C34.0391 9.76697 33.9237 9.77932 33.8167 9.81936Z" fill="#F13AB1"/>
<path fill-rule="evenodd" clip-rule="evenodd" d="M37.2368 10.7823C37.1506 10.751 37.059 10.7367 36.9673 10.7404C37.0869 10.7446 37.2047 10.771 37.3147 10.8182C37.2901 10.8036 37.264 10.7915 37.2368 10.7823Z" fill="#F15E22"/>
<path fill-rule="evenodd" clip-rule="evenodd" d="M36.6318 10.7763C36.6029 10.7963 36.5703 10.8105 36.536 10.8182C36.6716 10.7656 36.8159 10.7392 36.9613 10.7405C36.8502 10.728 36.7377 10.7402 36.6318 10.7763Z" fill="#F13AB1"/>
<path fill-rule="evenodd" clip-rule="evenodd" d="M37.3566 10.8422C37.27 10.8127 37.1784 10.8005 37.0871 10.8063C37.2063 10.8088 37.3241 10.8331 37.4345 10.8781C37.4045 10.8661 37.3866 10.8542 37.3566 10.8422Z" fill="#F15E22"/>
<path fill-rule="evenodd" clip-rule="evenodd" d="M36.7576 10.8363C36.7277 10.8542 36.6977 10.8602 36.6618 10.8781C36.7972 10.825 36.9416 10.7986 37.0871 10.8004C36.976 10.7931 36.8645 10.8053 36.7576 10.8363Z" fill="#F13AB1"/>
<path fill-rule="evenodd" clip-rule="evenodd" d="M14.7937 4.82471H14.7997C14.8236 4.81873 14.8596 4.80676 14.8895 4.80078C12.5116 5.15968 7.24075 13.6296 4.40766 21.3997C1.39487 29.6723 2.11962 33.662 4.48552 34.5293H4.49151C6.85742 35.3847 9.97801 32.7946 12.9968 24.5161C13.8114 22.285 14.5062 19.8684 15.0572 17.5236C13.5898 11.219 13.2663 5.39894 14.7937 4.82471Z" fill="#F13AB1"/>
<path fill-rule="evenodd" clip-rule="evenodd" d="M23.844 34.5292C21.4661 33.6559 20.7534 29.6602 23.7662 21.3996C24.0656 20.5802 24.3831 19.7487 24.7365 18.9292C21.6398 11.542 16.8661 4.382 14.8895 4.79473C15.0322 4.77525 15.1774 4.7875 15.3148 4.83062H15.3208V4.8366C16.8517 5.40486 16.5247 11.219 15.0548 17.5296C15.5957 19.8989 16.2839 22.2322 17.1153 24.5161C19.4932 31.036 21.9369 34.0208 24.0213 34.5771C23.9604 34.5653 23.9004 34.5493 23.8416 34.5292" fill="#FD913C"/>
<path fill-rule="evenodd" clip-rule="evenodd" d="M15.3148 4.83672H15.3088C15.1774 4.79443 15.0382 4.78217 14.9015 4.80083C14.8596 4.80681 14.8416 4.81877 14.8056 4.82475H14.7997C13.2723 5.39899 13.5957 11.2191 15.0572 17.5237C16.5127 11.2191 16.8421 5.41095 15.3148 4.83672Z" fill="#F05524"/>
<path fill-rule="evenodd" clip-rule="evenodd" d="M33.9784 4.86658C31.7623 5.66811 27.5695 12.212 24.7424 18.9233C25.0898 19.7428 25.4133 20.5742 25.7128 21.3937C28.7255 29.6603 28.0068 33.656 25.6349 34.5173V34.5233C25.563 34.5413 25.4851 34.5652 25.4253 34.5831C27.5156 34.0448 29.9834 31.066 32.3553 24.5101C33.1668 22.287 33.8389 20.0156 34.3678 17.7091C32.9003 11.4583 32.529 5.62624 33.9784 4.86658Z" fill="#FD913C"/>
<path fill-rule="evenodd" clip-rule="evenodd" d="M25.6229 34.5233H25.6289C27.9948 33.662 28.7136 29.6543 25.7068 21.3937C25.3953 20.5743 25.0779 19.7428 24.7245 18.9233C24.3771 19.7428 24.0536 20.5743 23.7542 21.3937C20.7414 29.6603 21.4661 33.662 23.832 34.5233C23.8919 34.5473 23.9578 34.5592 24.0177 34.5772C24.072 34.5967 24.1282 34.6108 24.1854 34.619H24.2094C24.3569 34.6529 24.5073 34.6729 24.6586 34.6789H24.8503C24.8867 34.6763 24.9228 34.6703 24.9581 34.6609C25 34.6609 25.0299 34.6549 25.0719 34.6549C25.1138 34.6549 25.1497 34.637 25.1977 34.631C25.2464 34.6294 25.2947 34.6213 25.3414 34.6071C25.3654 34.6071 25.3833 34.6011 25.4013 34.6011C25.4792 34.5712 25.551 34.5532 25.6229 34.5233Z" fill="#F05524"/>
<path fill-rule="evenodd" clip-rule="evenodd" d="M34.7332 4.8606C36.2006 5.59035 35.8353 11.4284 34.3618 17.721C34.8926 20.0225 35.5626 22.2897 36.3683 24.5101C39.3871 32.7827 42.5077 35.3787 44.8856 34.5233H44.8916C47.2515 33.65 47.9763 29.6663 44.9635 21.3937C42.2262 13.8868 37.2165 5.73391 34.7332 4.8606Z" fill="#F13AB1"/>
<path fill-rule="evenodd" clip-rule="evenodd" d="M34.7332 4.8606C34.6212 4.81991 34.5044 4.79377 34.3858 4.78284C34.2401 4.78969 34.0965 4.81999 33.9605 4.87256C32.523 5.63222 32.8824 11.4523 34.3558 17.721C35.8413 11.4344 36.2006 5.59633 34.7332 4.8606Z" fill="#F05524"/>
</svg>
