<svg width="25" height="26" viewBox="0 0 25 26" fill="none" xmlns="http://www.w3.org/2000/svg">
<path d="M12.5 13C11.3542 13 10.3733 12.592 9.55731 11.776C8.74134 10.96 8.33335 9.97913 8.33335 8.83329C8.33335 7.68746 8.74134 6.70656 9.55731 5.89058C10.3733 5.07461 11.3542 4.66663 12.5 4.66663C13.6459 4.66663 14.6268 5.07461 15.4427 5.89058C16.2587 6.70656 16.6667 7.68746 16.6667 8.83329C16.6667 9.97913 16.2587 10.96 15.4427 11.776C14.6268 12.592 13.6459 13 12.5 13ZM4.16669 21.3333V18.4166C4.16669 17.8263 4.3186 17.2838 4.62242 16.789C4.92624 16.2942 5.32988 15.9166 5.83335 15.6562C6.90974 15.118 8.00349 14.7144 9.1146 14.4453C10.2257 14.1762 11.3542 14.0416 12.5 14.0416C13.6459 14.0416 14.7743 14.1762 15.8854 14.4453C16.9965 14.7144 18.0903 15.118 19.1667 15.6562C19.6702 15.9166 20.0738 16.2942 20.3776 16.789C20.6814 17.2838 20.8334 17.8263 20.8334 18.4166V21.3333H4.16669ZM6.25002 19.25H18.75V18.4166C18.75 18.2257 18.7023 18.052 18.6068 17.8958C18.5113 17.7395 18.3854 17.618 18.2292 17.5312C17.2917 17.0625 16.3455 16.7109 15.3906 16.4765C14.4358 16.2421 13.4722 16.125 12.5 16.125C11.5278 16.125 10.5643 16.2421 9.6094 16.4765C8.65453 16.7109 7.70835 17.0625 6.77085 17.5312C6.6146 17.618 6.48874 17.7395 6.39325 17.8958C6.29776 18.052 6.25002 18.2257 6.25002 18.4166V19.25ZM12.5 10.9166C13.0729 10.9166 13.5634 10.7126 13.9714 10.3046C14.3794 9.89666 14.5834 9.40621 14.5834 8.83329C14.5834 8.26038 14.3794 7.76992 13.9714 7.36194C13.5634 6.95395 13.0729 6.74996 12.5 6.74996C11.9271 6.74996 11.4367 6.95395 11.0287 7.36194C10.6207 7.76992 10.4167 8.26038 10.4167 8.83329C10.4167 9.40621 10.6207 9.89666 11.0287 10.3046C11.4367 10.7126 11.9271 10.9166 12.5 10.9166Z" fill="#1D1B20"/>
</svg>
